<svg id="Capa_1" enable-background="new 0 0 512 512" height="512" viewBox="0 0 512 512" width="512" xmlns="http://www.w3.org/2000/svg"><g><g><g><g><path d="m269.916 221.979-65.981 66.045c-11.19 11.217-29.764 9.864-39.198-2.927-7.669-10.398-6.208-24.945 2.927-34.081l67.038-67.038 24.215-24.215c36.147-36.147 94.752-36.147 130.898 0 11.249 11.249 11.249 29.487 0 40.736l-5.395 5.395c-28.808 28.808-72.681 36.251-109.378 18.557z" fill="#ffcec0"/></g></g><g><path d="m21.984 180.771-18.801-18.239c-4.199-4.073-4.25-10.796-.113-14.932l70.181-70.181c4.042-4.042 10.578-4.099 14.69-.128l49.389 47.7 68.826 25.796 121.564 121.563c8.684 8.684 8.496 22.888-.57 31.324-8.63 8.04-22.232 7.424-30.574-.918l18.926 18.926c8.684 8.684 8.496 22.875-.57 31.324-8.63 8.04-22.225 7.417-30.567-.925l-7.886-7.886c4.248 4.248 6.372 9.816 6.365 15.384.007 5.663-2.197 11.332-6.59 15.606-8.594 8.361-22.468 7.867-30.946-.611l-16.147-16.147c8.684 8.684 8.496 22.888-.57 31.324-8.63 8.04-22.225 7.431-30.574-.918l-138.029-135.644c-.335-.322-.663-.65-.998-.985-19.404-19.405-32.336-44.357-37.006-71.433z" fill="#ba5d4f"/><path d="m327.155 303.67c9.065-8.436 9.254-22.636.566-31.324l-121.564-121.554-68.831-25.801-9.505-9.18c-12.848 4.433-24.91 11.779-35.17 22.039-5.617 5.628-8.436 12.995-8.436 20.362 0 7.378 2.819 14.745 8.436 20.373l5.397 5.397c27.425 27.415 68.497 35.484 104.04 20.926.822-.337 3.09-1.385 5.305-2.421 3.102-1.451 6.78-.804 9.201 1.619 3.173 3.177 3.172 8.324-.003 11.499l-84.117 84.125c-4.318 4.307-7.619 9.495-9.746 15.122l75.286 73.987c8.352 8.342 21.945 8.95 30.58.912 9.065-8.436 9.254-22.636.566-31.324l16.548 16.548c8.499 8.489 22.269 8.489 30.769 0 4.244-4.255 6.372-9.83 6.372-15.395s-2.117-11.14-6.372-15.384l7.891 7.891c8.342 8.342 21.934 8.96 30.569.922 9.065-8.447 9.254-22.647.566-31.324l-18.926-18.926c8.34 8.341 21.943 8.959 30.578.911z" fill="#a34f41"/><g><path d="m229.166 366.289c-2.011 0-4.023-.768-5.558-2.302l-79.959-79.959c-3.069-3.07-3.069-8.046 0-11.116 3.07-3.068 8.046-3.068 11.116 0l79.959 79.959c3.069 3.07 3.069 8.046 0 11.116-1.535 1.534-3.547 2.302-5.558 2.302z" fill="#9b473b"/></g><g><path d="m276.476 352.054c-2.011 0-4.023-.768-5.558-2.302l-96.496-96.496c-3.069-3.07-3.069-8.046 0-11.116 3.07-3.068 8.046-3.068 11.116 0l96.496 96.496c3.069 3.07 3.069 8.046 0 11.116-1.535 1.535-3.547 2.302-5.558 2.302z" fill="#9b473b"/></g><g><path d="m296.582 310.616c-2.011 0-4.023-.768-5.558-2.302l-84.813-84.813c-3.069-3.07-3.069-8.046 0-11.116 3.07-3.068 8.046-3.068 11.116 0l84.813 84.813c3.069 3.07 3.069 8.046 0 11.116-1.535 1.534-3.547 2.302-5.558 2.302z" fill="#9b473b"/></g></g><g><g><g><path d="m453.026 222.968 55.858-55.161c4.137-4.085 4.157-10.756.047-14.867l-70.197-70.197c-4.062-4.062-10.638-4.097-14.743-.077l-86.312 84.522-68.826 25.796-121.564 121.563c-8.684 8.684-8.496 22.888.57 31.324 8.63 8.04 22.232 7.424 30.574-.918l-18.926 18.926c-8.684 8.684-8.496 22.875.57 31.324 8.63 8.04 22.225 7.417 30.567-.925l7.886-7.886c-4.248 4.248-6.372 9.816-6.365 15.384-.007 5.663 2.197 11.332 6.59 15.606 8.594 8.361 22.468 7.867 30.946-.611l16.147-16.147c-8.684 8.684-8.496 22.888.57 31.324 8.63 8.04 22.225 7.431 30.574-.918l138.03-135.645c.335-.322.663-.65.998-.985 19.404-19.403 32.336-44.356 37.006-71.432z" fill="#ffcec0"/><path d="m496.539 140.553-27.605 27.267c-21.753-21.753-43.506-43.506-65.26-65.26l-34.221 33.511 57.221 57.221c4.582 4.582 6.458 11.214 4.954 17.517l-.019.078c-5.646 24.073-17.896 46.139-35.436 63.669-.335.335-.66.671-.996.985l-138.028 135.65c-4.789 4.779-11.297 7.021-17.606 6.55.409 5.229 2.704 10.333 6.875 14.21 8.625 8.038 22.227 7.43 30.569-.922l138.028-135.639c.335-.325.671-.66 1.006-.985 19.398-19.408 32.33-44.36 37.004-71.44l55.856-55.154c4.137-4.085 4.158-10.756.047-14.867z" fill="#fdb0a0"/><g><path d="m334.648 252.361c-9.432 12.785-28.012 14.148-39.205 2.924l-44.423-44.466 17.836-17.837 27.331-10.239 35.537 35.537c9.128 9.139 10.596 23.685 2.924 34.081z" fill="#fdb0a0"/></g></g><g><path d="m322.513 323.551-95.554 95.554c-7.011 5.072-16.39 5.722-23.8 1.562l108.235-108.235c3.07-3.07 8.048-3.07 11.119 0 3.07 3.07 3.07 8.048 0 11.119z" fill="#fdb0a0"/></g><g><path d="m291.734 292.772-103.812 103.822-.031.021c-7.001 5.062-16.369 5.712-23.768 1.54l116.503-116.492c3.07-3.07 8.048-3.07 11.108 0 3.071 3.071 3.071 8.038 0 11.109z" fill="#fdb0a0"/></g><g><path d="m246.158 276.811-70.497 70.497-.021.01c-6.99 5.03-16.338 5.67-23.726 1.509l83.125-83.135c3.07-3.07 8.048-3.07 11.119 0 3.07 3.071 3.07 8.049 0 11.119z" fill="#fdb0a0"/></g></g></g><g><g><path d="m212.55 172.325 65.981 66.045c11.19 11.217 29.764 9.864 39.198-2.927 7.669-10.398 6.208-24.945-2.927-34.081l-67.038-67.038-24.215-24.215c-36.147-36.147-94.752-36.147-130.898 0-11.249 11.249-11.249 29.487 0 40.736l5.395 5.395c28.808 28.808 72.681 36.251 109.378 18.557z" fill="#c86f5c"/></g></g></g><path d="m501.273 192.291-12.094 12.094c-4.093 4.093-10.728 4.093-14.821 0l-86.711-86.711c-4.093-4.093-4.093-10.728 0-14.821l12.094-12.094c4.093-4.093 10.728-4.093 14.821 0l86.711 86.711c4.092 4.093 4.092 10.728 0 14.821z" fill="#64b9fc"/><path d="m501.276 192.291-12.094 12.094c-4.098 4.097-10.731 4.097-14.829 0l-21.242-21.242c4.098 4.087 10.731 4.087 14.818 0l12.094-12.094c3.972-3.972 4.097-10.322.377-14.441l20.876 20.865c4.087 4.087 4.087 10.721 0 14.818z" fill="#31a7fb"/></g></svg>